<svg width="1200" height="430" viewBox="0 0 1200 430" fill="none" xmlns="http://www.w3.org/2000/svg">
  <rect width="1200" height="430" rx="24" fill="#F4F8FC"/>
  <text x="60" y="62" fill="#1F2937" font-size="30" font-family="Apple SD Gothic Neo, Malgun Gothic, Arial, sans-serif" font-weight="700">가상 DOM 비교와 반영 전체 흐름</text>
  <text x="60" y="95" fill="#5B6675" font-size="18" font-family="Apple SD Gothic Neo, Malgun Gothic, Arial, sans-serif">실제 DOM을 읽는 단계부터 history 저장까지의 데모 흐름</text>

  <rect x="60" y="145" width="220" height="170" rx="18" fill="#FFFFFF" stroke="#CFE0F2" stroke-width="2"/>
  <text x="88" y="192" fill="#2B6CB0" font-size="20" font-family="Apple SD Gothic Neo, Malgun Gothic, Arial, sans-serif" font-weight="700">1. 실제 DOM</text>
  <text x="88" y="228" fill="#1F2937" font-size="16" font-family="Apple SD Gothic Neo, Malgun Gothic, Arial, sans-serif">왼쪽 패널에 있는</text>
  <text x="88" y="252" fill="#1F2937" font-size="16" font-family="Apple SD Gothic Neo, Malgun Gothic, Arial, sans-serif">샘플 HTML을 읽는다.</text>
  <text x="88" y="286" fill="#5B6675" font-size="15" font-family="Apple SD Gothic Neo, Malgun Gothic, Arial, sans-serif">domToVNode()</text>

  <rect x="340" y="145" width="220" height="170" rx="18" fill="#FFFFFF" stroke="#CFE0F2" stroke-width="2"/>
  <text x="368" y="192" fill="#2B6CB0" font-size="20" font-family="Apple SD Gothic Neo, Malgun Gothic, Arial, sans-serif" font-weight="700">2. 가상 DOM</text>
  <text x="368" y="228" fill="#1F2937" font-size="16" font-family="Apple SD Gothic Neo, Malgun Gothic, Arial, sans-serif">태그, 속성, 자식을</text>
  <text x="368" y="252" fill="#1F2937" font-size="16" font-family="Apple SD Gothic Neo, Malgun Gothic, Arial, sans-serif">객체 구조로 저장한다.</text>
  <text x="368" y="286" fill="#5B6675" font-size="15" font-family="Apple SD Gothic Neo, Malgun Gothic, Arial, sans-serif">renderVNode()</text>

  <rect x="620" y="145" width="220" height="170" rx="18" fill="#FFFFFF" stroke="#CFE0F2" stroke-width="2"/>
  <text x="648" y="192" fill="#2B6CB0" font-size="20" font-family="Apple SD Gothic Neo, Malgun Gothic, Arial, sans-serif" font-weight="700">3. 테스트 영역</text>
  <text x="648" y="228" fill="#1F2937" font-size="16" font-family="Apple SD Gothic Neo, Malgun Gothic, Arial, sans-serif">오른쪽 HTML을 수정하고</text>
  <text x="648" y="252" fill="#1F2937" font-size="16" font-family="Apple SD Gothic Neo, Malgun Gothic, Arial, sans-serif">미리보기로 바로 확인한다.</text>
  <text x="648" y="286" fill="#5B6675" font-size="15" font-family="Apple SD Gothic Neo, Malgun Gothic, Arial, sans-serif">반영 버튼</text>

  <rect x="900" y="145" width="240" height="170" rx="18" fill="#FFFFFF" stroke="#CFE0F2" stroke-width="2"/>
  <text x="928" y="192" fill="#2B6CB0" font-size="20" font-family="Apple SD Gothic Neo, Malgun Gothic, Arial, sans-serif" font-weight="700">4. 비교와 반영</text>
  <text x="928" y="228" fill="#1F2937" font-size="16" font-family="Apple SD Gothic Neo, Malgun Gothic, Arial, sans-serif">이전 가상 DOM과 새 가상 DOM을</text>
  <text x="928" y="252" fill="#1F2937" font-size="16" font-family="Apple SD Gothic Neo, Malgun Gothic, Arial, sans-serif">비교한 뒤 변경된 실제 DOM만</text>
  <text x="928" y="276" fill="#1F2937" font-size="16" font-family="Apple SD Gothic Neo, Malgun Gothic, Arial, sans-serif">화면에 반영한다.</text>

  <rect x="455" y="340" width="290" height="56" rx="16" fill="#EAF3FB" stroke="#CFE0F2" stroke-width="2"/>
  <text x="482" y="375" fill="#1F2937" font-size="18" font-family="Apple SD Gothic Neo, Malgun Gothic, Arial, sans-serif" font-weight="700">5. 되돌리기 / 다시하기를 위한 상태 기록 저장</text>

  <path d="M280 230H330" stroke="#2B6CB0" stroke-width="4" stroke-linecap="round"/>
  <path d="M560 230H610" stroke="#2B6CB0" stroke-width="4" stroke-linecap="round"/>
  <path d="M840 230H890" stroke="#2B6CB0" stroke-width="4" stroke-linecap="round"/>
  <path d="M1020 315V335H600V338" stroke="#2B6CB0" stroke-width="4" stroke-linecap="round" stroke-linejoin="round"/>
  <path d="M330 230L316 222V238L330 230Z" fill="#2B6CB0"/>
  <path d="M610 230L596 222V238L610 230Z" fill="#2B6CB0"/>
  <path d="M890 230L876 222V238L890 230Z" fill="#2B6CB0"/>
  <path d="M600 338L592 324H608L600 338Z" fill="#2B6CB0"/>
</svg>
